<mxfile host="app.diagrams.net" modified="2023-07-31T06:48:55.032Z" agent="Mozilla/5.0 (Macintosh; Intel Mac OS X 10_15_7) AppleWebKit/537.36 (KHTML, like Gecko) Chrome/115.0.0.0 Safari/537.36" etag="V-ZhI0EcEH39GR06jVdE" version="21.6.1" type="github">
  <diagram name="第 1 页" id="TqWdv-P3sdVQTR0IXkMj">
    <mxGraphModel dx="954" dy="503" grid="1" gridSize="10" guides="1" tooltips="1" connect="1" arrows="1" fold="1" page="1" pageScale="1" pageWidth="827" pageHeight="1169" math="0" shadow="0">
      <root>
        <mxCell id="0" />
        <mxCell id="1" parent="0" />
        <mxCell id="dUh7FFNCmC9ng5v39xUU-2" style="edgeStyle=orthogonalEdgeStyle;rounded=0;orthogonalLoop=1;jettySize=auto;html=1;exitX=0.5;exitY=1;exitDx=0;exitDy=0;entryX=0.5;entryY=0;entryDx=0;entryDy=0;" parent="1" source="dUh7FFNCmC9ng5v39xUU-1" target="dUh7FFNCmC9ng5v39xUU-3" edge="1">
          <mxGeometry relative="1" as="geometry">
            <mxPoint x="290" y="320" as="targetPoint" />
          </mxGeometry>
        </mxCell>
        <mxCell id="dUh7FFNCmC9ng5v39xUU-5" style="edgeStyle=orthogonalEdgeStyle;rounded=0;orthogonalLoop=1;jettySize=auto;html=1;exitX=0.5;exitY=1;exitDx=0;exitDy=0;entryX=0.5;entryY=0;entryDx=0;entryDy=0;" parent="1" source="dUh7FFNCmC9ng5v39xUU-1" target="dUh7FFNCmC9ng5v39xUU-4" edge="1">
          <mxGeometry relative="1" as="geometry" />
        </mxCell>
        <mxCell id="dUh7FFNCmC9ng5v39xUU-1" value="WhileRegexNode2" style="rounded=0;whiteSpace=wrap;html=1;" parent="1" vertex="1">
          <mxGeometry x="340" y="170" width="120" height="60" as="geometry" />
        </mxCell>
        <mxCell id="dUh7FFNCmC9ng5v39xUU-3" value="SequentialRegexNode2&lt;br&gt;type_ = &quot;HV&quot;" style="rounded=0;whiteSpace=wrap;html=1;" parent="1" vertex="1">
          <mxGeometry x="220" y="300" width="140" height="60" as="geometry" />
        </mxCell>
        <mxCell id="dUh7FFNCmC9ng5v39xUU-4" value="InputRegexNode1&lt;span style=&quot;font-size: medium; text-align: start;&quot;&gt;&lt;/span&gt;" style="rounded=0;whiteSpace=wrap;html=1;" parent="1" vertex="1">
          <mxGeometry x="450" y="300" width="140" height="60" as="geometry" />
        </mxCell>
        <mxCell id="dUh7FFNCmC9ng5v39xUU-7" style="edgeStyle=orthogonalEdgeStyle;rounded=0;orthogonalLoop=1;jettySize=auto;html=1;exitX=0.5;exitY=1;exitDx=0;exitDy=0;entryX=0.5;entryY=0;entryDx=0;entryDy=0;" parent="1" source="dUh7FFNCmC9ng5v39xUU-6" target="dUh7FFNCmC9ng5v39xUU-1" edge="1">
          <mxGeometry relative="1" as="geometry" />
        </mxCell>
        <mxCell id="dUh7FFNCmC9ng5v39xUU-13" style="edgeStyle=orthogonalEdgeStyle;rounded=0;orthogonalLoop=1;jettySize=auto;html=1;exitX=0.5;exitY=1;exitDx=0;exitDy=0;entryX=0.5;entryY=0;entryDx=0;entryDy=0;" parent="1" source="dUh7FFNCmC9ng5v39xUU-6" target="dUh7FFNCmC9ng5v39xUU-10" edge="1">
          <mxGeometry relative="1" as="geometry" />
        </mxCell>
        <mxCell id="dUh7FFNCmC9ng5v39xUU-15" style="edgeStyle=orthogonalEdgeStyle;rounded=0;orthogonalLoop=1;jettySize=auto;html=1;exitX=0.5;exitY=1;exitDx=0;exitDy=0;entryX=0.5;entryY=0;entryDx=0;entryDy=0;" parent="1" source="dUh7FFNCmC9ng5v39xUU-6" target="dUh7FFNCmC9ng5v39xUU-14" edge="1">
          <mxGeometry relative="1" as="geometry" />
        </mxCell>
        <mxCell id="dUh7FFNCmC9ng5v39xUU-6" value="FusionRegexRoot&lt;span style=&quot;font-size: medium; text-align: start;&quot;&gt;&lt;/span&gt;" style="rounded=0;whiteSpace=wrap;html=1;" parent="1" vertex="1">
          <mxGeometry x="440" y="10" width="120" height="60" as="geometry" />
        </mxCell>
        <mxCell id="dUh7FFNCmC9ng5v39xUU-8" style="edgeStyle=orthogonalEdgeStyle;rounded=0;orthogonalLoop=1;jettySize=auto;html=1;exitX=0.5;exitY=1;exitDx=0;exitDy=0;entryX=0.5;entryY=0;entryDx=0;entryDy=0;" parent="1" source="dUh7FFNCmC9ng5v39xUU-10" target="dUh7FFNCmC9ng5v39xUU-11" edge="1">
          <mxGeometry relative="1" as="geometry">
            <mxPoint x="740" y="320" as="targetPoint" />
          </mxGeometry>
        </mxCell>
        <mxCell id="dUh7FFNCmC9ng5v39xUU-9" style="edgeStyle=orthogonalEdgeStyle;rounded=0;orthogonalLoop=1;jettySize=auto;html=1;exitX=0.5;exitY=1;exitDx=0;exitDy=0;entryX=0.5;entryY=0;entryDx=0;entryDy=0;" parent="1" source="dUh7FFNCmC9ng5v39xUU-10" target="dUh7FFNCmC9ng5v39xUU-12" edge="1">
          <mxGeometry relative="1" as="geometry" />
        </mxCell>
        <mxCell id="dUh7FFNCmC9ng5v39xUU-10" value="WhileRegexNode3" style="rounded=0;whiteSpace=wrap;html=1;" parent="1" vertex="1">
          <mxGeometry x="760" y="170" width="120" height="60" as="geometry" />
        </mxCell>
        <mxCell id="dUh7FFNCmC9ng5v39xUU-11" value="SequentialRegexNode3&lt;br&gt;type_ = &quot;HV&quot;" style="rounded=0;whiteSpace=wrap;html=1;" parent="1" vertex="1">
          <mxGeometry x="630" y="300" width="140" height="60" as="geometry" />
        </mxCell>
        <mxCell id="dUh7FFNCmC9ng5v39xUU-12" value="InputRegexNode2&lt;span style=&quot;font-size: medium; text-align: start;&quot;&gt;&lt;/span&gt;" style="rounded=0;whiteSpace=wrap;html=1;" parent="1" vertex="1">
          <mxGeometry x="860" y="300" width="140" height="60" as="geometry" />
        </mxCell>
        <mxCell id="94xOly5U85tqnRoK18XK-2" style="edgeStyle=orthogonalEdgeStyle;rounded=0;orthogonalLoop=1;jettySize=auto;html=1;exitX=0.5;exitY=1;exitDx=0;exitDy=0;entryX=0.5;entryY=0;entryDx=0;entryDy=0;" edge="1" parent="1" source="dUh7FFNCmC9ng5v39xUU-14" target="94xOly5U85tqnRoK18XK-1">
          <mxGeometry relative="1" as="geometry" />
        </mxCell>
        <mxCell id="dUh7FFNCmC9ng5v39xUU-14" value="WhileRegexNode1" style="rounded=0;whiteSpace=wrap;html=1;" parent="1" vertex="1">
          <mxGeometry x="50" y="170" width="140" height="60" as="geometry" />
        </mxCell>
        <mxCell id="94xOly5U85tqnRoK18XK-1" value="SequentialRegexNode1&lt;br&gt;type_ = &quot;H&quot;" style="rounded=0;whiteSpace=wrap;html=1;" vertex="1" parent="1">
          <mxGeometry x="50" y="300" width="140" height="60" as="geometry" />
        </mxCell>
      </root>
    </mxGraphModel>
  </diagram>
</mxfile>
